<mxfile host="app.diagrams.net" modified="2024-04-17T10:41:50.295Z" agent="Mozilla/5.0 (Windows NT 10.0; Win64; x64) AppleWebKit/537.36 (KHTML, like Gecko) Chrome/123.0.0.0 Safari/537.36" etag="dYkBRaka5FrlEC8MDoUg" version="24.2.5" type="github">
  <diagram name="Page-1" id="A-FGhxd7DClZq7FlKpaj">
    <mxGraphModel dx="2146" dy="1963" grid="0" gridSize="10" guides="1" tooltips="1" connect="0" arrows="0" fold="1" page="1" pageScale="1" pageWidth="827" pageHeight="1169" math="0" shadow="0">
      <root>
        <mxCell id="0" />
        <mxCell id="1" parent="0" />
        <mxCell id="ekFLPFbGaSNAjxpNONnF-1" value="" style="rounded=1;whiteSpace=wrap;html=1;shadow=0;dashed=1;dashPattern=8 8;" vertex="1" parent="1">
          <mxGeometry x="70" y="10" width="550" height="320" as="geometry" />
        </mxCell>
        <mxCell id="ekFLPFbGaSNAjxpNONnF-4" value="&lt;font style=&quot;font-size: 14px;&quot;&gt;Monolith&lt;/font&gt;" style="rounded=1;whiteSpace=wrap;html=1;fillColor=#fff2cc;strokeColor=#d6b656;gradientColor=#ffd966;" vertex="1" parent="1">
          <mxGeometry x="161" y="-10" width="360" height="40" as="geometry" />
        </mxCell>
        <mxCell id="ekFLPFbGaSNAjxpNONnF-10" value="" style="rounded=1;whiteSpace=wrap;html=1;strokeWidth=1;fillColor=none;strokeColor=default;dashed=1;" vertex="1" parent="1">
          <mxGeometry x="250" y="70" width="190" height="250" as="geometry" />
        </mxCell>
        <mxCell id="ekFLPFbGaSNAjxpNONnF-5" value="Orders" style="rounded=1;whiteSpace=wrap;html=1;fillColor=#d5e8d4;strokeColor=#82b366;shadow=1;" vertex="1" parent="1">
          <mxGeometry x="286.2" y="90" width="115.19999999999999" height="30" as="geometry" />
        </mxCell>
        <mxCell id="ekFLPFbGaSNAjxpNONnF-6" value="Promotions" style="rounded=1;whiteSpace=wrap;html=1;fillColor=#f8cecc;strokeColor=#b85450;shadow=1;" vertex="1" parent="1">
          <mxGeometry x="286.2" y="135" width="115.19999999999999" height="30" as="geometry" />
        </mxCell>
        <mxCell id="ekFLPFbGaSNAjxpNONnF-7" value="Users" style="rounded=1;whiteSpace=wrap;html=1;fillColor=#ffe6cc;strokeColor=#d79b00;shadow=1;" vertex="1" parent="1">
          <mxGeometry x="286.2" y="182" width="115.19999999999999" height="28" as="geometry" />
        </mxCell>
        <mxCell id="ekFLPFbGaSNAjxpNONnF-8" value="Payments" style="rounded=1;whiteSpace=wrap;html=1;fillColor=#f5f5f5;strokeColor=#666666;fontColor=#333333;shadow=1;" vertex="1" parent="1">
          <mxGeometry x="286.2" y="230" width="115.19999999999999" height="28" as="geometry" />
        </mxCell>
        <mxCell id="ekFLPFbGaSNAjxpNONnF-9" value="Suggestions" style="rounded=1;whiteSpace=wrap;html=1;fillColor=#e1d5e7;strokeColor=#9673a6;strokeWidth=2;shadow=1;" vertex="1" parent="1">
          <mxGeometry x="286.2" y="280" width="115.19999999999999" height="28" as="geometry" />
        </mxCell>
        <mxCell id="ekFLPFbGaSNAjxpNONnF-11" value="&lt;font style=&quot;font-size: 14px;&quot; face=&quot;Verdana&quot;&gt;Backend&lt;/font&gt;" style="rounded=1;whiteSpace=wrap;html=1;fillColor=#fad7ac;strokeColor=#b46504;shadow=1;" vertex="1" parent="1">
          <mxGeometry x="280" y="40" width="133" height="40" as="geometry" />
        </mxCell>
        <mxCell id="ekFLPFbGaSNAjxpNONnF-23" value="Desktop and Mobile" style="strokeColor=#d6b656;shadow=1;strokeWidth=1;rounded=1;absoluteArcSize=1;arcSize=2;labelPosition=center;verticalLabelPosition=middle;align=center;verticalAlign=bottom;spacingLeft=0;fontSize=12;whiteSpace=wrap;spacingBottom=2;html=1;fillColor=#fff2cc;" vertex="1" parent="1">
          <mxGeometry x="80" y="131" width="90" height="89" as="geometry" />
        </mxCell>
        <mxCell id="ekFLPFbGaSNAjxpNONnF-24" value="" style="sketch=0;dashed=0;connectable=0;html=1;fillColor=#757575;strokeColor=none;shape=mxgraph.gcp2.desktop_and_mobile;part=1;" vertex="1" parent="ekFLPFbGaSNAjxpNONnF-23">
          <mxGeometry x="0.5" width="50" height="33" relative="1" as="geometry">
            <mxPoint x="-25" y="18.5" as="offset" />
          </mxGeometry>
        </mxCell>
        <mxCell id="ekFLPFbGaSNAjxpNONnF-41" value="" style="endArrow=classic;startArrow=classic;html=1;rounded=0;dashed=1;dashPattern=1 3;strokeColor=default;strokeWidth=2;align=center;verticalAlign=middle;fontFamily=Helvetica;fontSize=11;fontColor=default;labelBackgroundColor=default;flowAnimation=1;entryX=-0.013;entryY=0.444;entryDx=0;entryDy=0;entryPerimeter=0;" edge="1" parent="1" target="ekFLPFbGaSNAjxpNONnF-10">
          <mxGeometry width="50" height="50" relative="1" as="geometry">
            <mxPoint x="170" y="180" as="sourcePoint" />
            <mxPoint x="220" y="130" as="targetPoint" />
          </mxGeometry>
        </mxCell>
        <mxCell id="ekFLPFbGaSNAjxpNONnF-43" value="" style="endArrow=classic;startArrow=classic;html=1;rounded=0;dashed=1;dashPattern=1 3;strokeColor=default;strokeWidth=2;align=center;verticalAlign=middle;fontFamily=Helvetica;fontSize=11;fontColor=default;labelBackgroundColor=default;flowAnimation=1;entryX=0.018;entryY=0.504;entryDx=0;entryDy=0;entryPerimeter=0;" edge="1" parent="1" source="ekFLPFbGaSNAjxpNONnF-10">
          <mxGeometry width="50" height="50" relative="1" as="geometry">
            <mxPoint x="450" y="195.5" as="sourcePoint" />
            <mxPoint x="501.98" y="192.96000000000004" as="targetPoint" />
          </mxGeometry>
        </mxCell>
        <mxCell id="ekFLPFbGaSNAjxpNONnF-84" value="" style="shadow=0;dashed=0;html=1;labelPosition=center;verticalLabelPosition=bottom;verticalAlign=top;align=center;outlineConnect=0;shape=mxgraph.veeam.3d.free_datastore;fontFamily=Helvetica;fontSize=11;fontColor=default;labelBackgroundColor=default;" vertex="1" parent="1">
          <mxGeometry x="502" y="130" width="98" height="100" as="geometry" />
        </mxCell>
        <mxCell id="ekFLPFbGaSNAjxpNONnF-93" value="" style="group" vertex="1" connectable="0" parent="1">
          <mxGeometry x="49" y="358" width="730" height="397" as="geometry" />
        </mxCell>
        <mxCell id="ekFLPFbGaSNAjxpNONnF-91" value="" style="rounded=1;whiteSpace=wrap;html=1;fontFamily=Helvetica;fontSize=11;fontColor=default;labelBackgroundColor=default;dashed=1;dashPattern=8 8;" vertex="1" parent="ekFLPFbGaSNAjxpNONnF-93">
          <mxGeometry y="28" width="730" height="369" as="geometry" />
        </mxCell>
        <mxCell id="ekFLPFbGaSNAjxpNONnF-90" value="" style="group" vertex="1" connectable="0" parent="ekFLPFbGaSNAjxpNONnF-93">
          <mxGeometry x="28.999999999999986" y="56" width="678.6" height="330" as="geometry" />
        </mxCell>
        <mxCell id="ekFLPFbGaSNAjxpNONnF-33" value="" style="sketch=0;outlineConnect=0;fontColor=#232F3E;gradientColor=none;fillColor=#232F3D;strokeColor=none;dashed=0;verticalLabelPosition=bottom;verticalAlign=top;align=center;html=1;fontSize=12;fontStyle=0;aspect=fixed;pointerEvents=1;shape=mxgraph.aws4.mobile_client;" vertex="1" parent="ekFLPFbGaSNAjxpNONnF-90">
          <mxGeometry x="30.140000000000015" y="30" width="50" height="95.12" as="geometry" />
        </mxCell>
        <mxCell id="ekFLPFbGaSNAjxpNONnF-34" value="" style="points=[[0.13,0.02,0],[0.5,0,0],[0.87,0.02,0],[0.885,0.4,0],[0.985,0.985,0],[0.5,1,0],[0.015,0.985,0],[0.115,0.4,0]];verticalLabelPosition=bottom;sketch=0;html=1;verticalAlign=top;aspect=fixed;align=center;pointerEvents=1;shape=mxgraph.cisco19.laptop;fillColor=#005073;strokeColor=none;" vertex="1" parent="ekFLPFbGaSNAjxpNONnF-90">
          <mxGeometry y="225.41999999999996" width="85.71" height="60" as="geometry" />
        </mxCell>
        <mxCell id="ekFLPFbGaSNAjxpNONnF-36" value="API&lt;div&gt;Gateway&lt;/div&gt;" style="rounded=1;whiteSpace=wrap;html=1;" vertex="1" parent="ekFLPFbGaSNAjxpNONnF-90">
          <mxGeometry x="166.2" y="10" width="70" height="290" as="geometry" />
        </mxCell>
        <mxCell id="ekFLPFbGaSNAjxpNONnF-59" value="" style="group" vertex="1" connectable="0" parent="ekFLPFbGaSNAjxpNONnF-90">
          <mxGeometry x="313.4" y="120" width="138.6" height="64" as="geometry" />
        </mxCell>
        <mxCell id="ekFLPFbGaSNAjxpNONnF-46" value="Suggestions" style="rounded=1;whiteSpace=wrap;html=1;fillColor=#ffe6cc;strokeColor=#d79b00;shadow=1;" vertex="1" parent="ekFLPFbGaSNAjxpNONnF-59">
          <mxGeometry width="115.19999999999997" height="45.714285714285715" as="geometry" />
        </mxCell>
        <mxCell id="ekFLPFbGaSNAjxpNONnF-53" value="" style="shadow=0;dashed=0;html=1;labelPosition=center;verticalLabelPosition=bottom;verticalAlign=top;align=center;outlineConnect=0;shape=mxgraph.veeam.3d.medium_datastore;fontFamily=Helvetica;fontSize=11;fontColor=default;labelBackgroundColor=default;" vertex="1" parent="ekFLPFbGaSNAjxpNONnF-59">
          <mxGeometry x="98.6" y="12.190476190476192" width="39.99999999999999" height="51.80952380952381" as="geometry" />
        </mxCell>
        <mxCell id="ekFLPFbGaSNAjxpNONnF-60" value="" style="group" vertex="1" connectable="0" parent="ekFLPFbGaSNAjxpNONnF-90">
          <mxGeometry x="540" y="195" width="138.60000000000002" height="45" as="geometry" />
        </mxCell>
        <mxCell id="ekFLPFbGaSNAjxpNONnF-47" value="Promotions" style="rounded=1;whiteSpace=wrap;html=1;fillColor=#f5f5f5;strokeColor=#666666;fontColor=#333333;shadow=1;" vertex="1" parent="ekFLPFbGaSNAjxpNONnF-60">
          <mxGeometry width="115.2" height="27" as="geometry" />
        </mxCell>
        <mxCell id="ekFLPFbGaSNAjxpNONnF-54" value="" style="shadow=0;dashed=0;html=1;labelPosition=center;verticalLabelPosition=bottom;verticalAlign=top;align=center;outlineConnect=0;shape=mxgraph.veeam.3d.medium_datastore;fontFamily=Helvetica;fontSize=11;fontColor=default;labelBackgroundColor=default;" vertex="1" parent="ekFLPFbGaSNAjxpNONnF-60">
          <mxGeometry x="98.60000000000002" y="11" width="40" height="34" as="geometry" />
        </mxCell>
        <mxCell id="ekFLPFbGaSNAjxpNONnF-62" value="" style="endArrow=classic;startArrow=classic;html=1;rounded=0;dashed=1;dashPattern=1 3;strokeColor=default;strokeWidth=2;align=center;verticalAlign=middle;fontFamily=Helvetica;fontSize=11;fontColor=default;labelBackgroundColor=default;flowAnimation=1;exitX=0.986;exitY=0.103;exitDx=0;exitDy=0;exitPerimeter=0;" edge="1" parent="ekFLPFbGaSNAjxpNONnF-90" source="ekFLPFbGaSNAjxpNONnF-36">
          <mxGeometry width="50" height="50" relative="1" as="geometry">
            <mxPoint x="260" y="90" as="sourcePoint" />
            <mxPoint x="310" y="40" as="targetPoint" />
          </mxGeometry>
        </mxCell>
        <mxCell id="ekFLPFbGaSNAjxpNONnF-64" value="" style="endArrow=classic;startArrow=classic;html=1;rounded=0;dashed=1;dashPattern=1 3;strokeColor=default;strokeWidth=2;align=center;verticalAlign=middle;fontFamily=Helvetica;fontSize=11;fontColor=default;labelBackgroundColor=default;flowAnimation=1;exitX=0.986;exitY=0.103;exitDx=0;exitDy=0;exitPerimeter=0;" edge="1" parent="ekFLPFbGaSNAjxpNONnF-90">
          <mxGeometry width="50" height="50" relative="1" as="geometry">
            <mxPoint x="237" y="157" as="sourcePoint" />
            <mxPoint x="312" y="157" as="targetPoint" />
          </mxGeometry>
        </mxCell>
        <mxCell id="ekFLPFbGaSNAjxpNONnF-66" value="" style="endArrow=classic;startArrow=classic;html=1;rounded=0;dashed=1;dashPattern=1 3;strokeColor=default;strokeWidth=2;align=center;verticalAlign=middle;fontFamily=Helvetica;fontSize=11;fontColor=default;labelBackgroundColor=default;flowAnimation=1;exitX=0.986;exitY=0.103;exitDx=0;exitDy=0;exitPerimeter=0;" edge="1" parent="ekFLPFbGaSNAjxpNONnF-90">
          <mxGeometry width="50" height="50" relative="1" as="geometry">
            <mxPoint x="238" y="267" as="sourcePoint" />
            <mxPoint x="313" y="267" as="targetPoint" />
          </mxGeometry>
        </mxCell>
        <mxCell id="ekFLPFbGaSNAjxpNONnF-67" value="" style="group" vertex="1" connectable="0" parent="ekFLPFbGaSNAjxpNONnF-90">
          <mxGeometry x="540" y="90" width="138.60000000000002" height="45" as="geometry" />
        </mxCell>
        <mxCell id="ekFLPFbGaSNAjxpNONnF-68" value="Payments" style="rounded=1;whiteSpace=wrap;html=1;fillColor=#f5f5f5;strokeColor=#666666;fontColor=#333333;shadow=1;" vertex="1" parent="ekFLPFbGaSNAjxpNONnF-67">
          <mxGeometry width="115.2" height="27" as="geometry" />
        </mxCell>
        <mxCell id="ekFLPFbGaSNAjxpNONnF-69" value="" style="shadow=0;dashed=0;html=1;labelPosition=center;verticalLabelPosition=bottom;verticalAlign=top;align=center;outlineConnect=0;shape=mxgraph.veeam.3d.medium_datastore;fontFamily=Helvetica;fontSize=11;fontColor=default;labelBackgroundColor=default;" vertex="1" parent="ekFLPFbGaSNAjxpNONnF-67">
          <mxGeometry x="98.60000000000002" y="11" width="40" height="34" as="geometry" />
        </mxCell>
        <mxCell id="ekFLPFbGaSNAjxpNONnF-70" value="" style="endArrow=classic;startArrow=classic;html=1;rounded=0;dashed=1;dashPattern=1 3;strokeColor=default;strokeWidth=2;align=center;verticalAlign=middle;fontFamily=Helvetica;fontSize=11;fontColor=default;labelBackgroundColor=default;flowAnimation=1;entryX=0.488;entryY=1.02;entryDx=0;entryDy=0;entryPerimeter=0;" edge="1" parent="ekFLPFbGaSNAjxpNONnF-90" target="ekFLPFbGaSNAjxpNONnF-44">
          <mxGeometry width="50" height="50" relative="1" as="geometry">
            <mxPoint x="370" y="120" as="sourcePoint" />
            <mxPoint x="370" y="80" as="targetPoint" />
          </mxGeometry>
        </mxCell>
        <mxCell id="ekFLPFbGaSNAjxpNONnF-71" value="" style="endArrow=classic;startArrow=classic;html=1;rounded=0;dashed=1;dashPattern=1 3;strokeColor=default;strokeWidth=2;align=center;verticalAlign=middle;fontFamily=Helvetica;fontSize=11;fontColor=default;labelBackgroundColor=default;flowAnimation=1;entryX=0.488;entryY=1.02;entryDx=0;entryDy=0;entryPerimeter=0;exitX=0.485;exitY=0;exitDx=0;exitDy=0;exitPerimeter=0;" edge="1" parent="ekFLPFbGaSNAjxpNONnF-90" source="ekFLPFbGaSNAjxpNONnF-48">
          <mxGeometry width="50" height="50" relative="1" as="geometry">
            <mxPoint x="370" y="250" as="sourcePoint" />
            <mxPoint x="370" y="174" as="targetPoint" />
          </mxGeometry>
        </mxCell>
        <mxCell id="ekFLPFbGaSNAjxpNONnF-72" value="" style="endArrow=classic;startArrow=classic;html=1;rounded=0;dashed=1;dashPattern=1 3;strokeColor=default;strokeWidth=2;align=center;verticalAlign=middle;fontFamily=Helvetica;fontSize=11;fontColor=default;labelBackgroundColor=default;flowAnimation=1;curved=1;" edge="1" parent="ekFLPFbGaSNAjxpNONnF-90">
          <mxGeometry width="50" height="50" relative="1" as="geometry">
            <mxPoint x="430" y="26" as="sourcePoint" />
            <mxPoint x="430" y="250" as="targetPoint" />
            <Array as="points">
              <mxPoint x="490" y="26" />
              <mxPoint x="480" y="260" />
            </Array>
          </mxGeometry>
        </mxCell>
        <mxCell id="ekFLPFbGaSNAjxpNONnF-48" value="Users" style="rounded=1;whiteSpace=wrap;html=1;fillColor=#e1d5e7;strokeColor=#9673a6;strokeWidth=2;shadow=1;" vertex="1" parent="ekFLPFbGaSNAjxpNONnF-90">
          <mxGeometry x="313.4" y="240" width="116.6" height="47.71" as="geometry" />
        </mxCell>
        <mxCell id="ekFLPFbGaSNAjxpNONnF-55" value="" style="shadow=0;dashed=0;html=1;labelPosition=center;verticalLabelPosition=bottom;verticalAlign=top;align=center;outlineConnect=0;shape=mxgraph.veeam.3d.medium_datastore;fontFamily=Helvetica;fontSize=11;fontColor=default;labelBackgroundColor=default;" vertex="1" parent="ekFLPFbGaSNAjxpNONnF-90">
          <mxGeometry x="412" y="285.4222222222222" width="39.99999999999999" height="44.577777777777776" as="geometry" />
        </mxCell>
        <mxCell id="ekFLPFbGaSNAjxpNONnF-44" value="Orders" style="rounded=1;whiteSpace=wrap;html=1;fillColor=#d5e8d4;strokeColor=#82b366;shadow=1;" vertex="1" parent="ekFLPFbGaSNAjxpNONnF-90">
          <mxGeometry x="313.4" width="115.2" height="46.67" as="geometry" />
        </mxCell>
        <mxCell id="ekFLPFbGaSNAjxpNONnF-51" value="" style="shadow=0;dashed=0;html=1;labelPosition=center;verticalLabelPosition=bottom;verticalAlign=top;align=center;outlineConnect=0;shape=mxgraph.veeam.3d.medium_datastore;fontFamily=Helvetica;fontSize=11;fontColor=default;labelBackgroundColor=default;" vertex="1" parent="ekFLPFbGaSNAjxpNONnF-90">
          <mxGeometry x="412" y="34.44444444444446" width="39.99999999999999" height="41.55555555555556" as="geometry" />
        </mxCell>
        <mxCell id="ekFLPFbGaSNAjxpNONnF-73" value="" style="endArrow=classic;startArrow=classic;html=1;rounded=0;dashed=1;dashPattern=1 3;strokeColor=default;strokeWidth=2;align=center;verticalAlign=middle;fontFamily=Helvetica;fontSize=11;fontColor=default;labelBackgroundColor=default;flowAnimation=1;entryX=-0.017;entryY=0.422;entryDx=0;entryDy=0;entryPerimeter=0;curved=1;" edge="1" parent="ekFLPFbGaSNAjxpNONnF-90" target="ekFLPFbGaSNAjxpNONnF-68">
          <mxGeometry width="50" height="50" relative="1" as="geometry">
            <mxPoint x="430" y="10" as="sourcePoint" />
            <mxPoint x="440" y="270" as="targetPoint" />
            <Array as="points">
              <mxPoint x="490" y="10" />
              <mxPoint x="490" y="101" />
            </Array>
          </mxGeometry>
        </mxCell>
        <mxCell id="ekFLPFbGaSNAjxpNONnF-74" value="" style="endArrow=classic;startArrow=classic;html=1;rounded=0;dashed=1;dashPattern=1 3;strokeColor=default;strokeWidth=2;align=center;verticalAlign=middle;fontFamily=Helvetica;fontSize=11;fontColor=default;labelBackgroundColor=default;flowAnimation=1;entryX=-0.01;entryY=0.474;entryDx=0;entryDy=0;entryPerimeter=0;curved=1;" edge="1" parent="ekFLPFbGaSNAjxpNONnF-90" target="ekFLPFbGaSNAjxpNONnF-47">
          <mxGeometry width="50" height="50" relative="1" as="geometry">
            <mxPoint x="432" y="274" as="sourcePoint" />
            <mxPoint x="510" y="365" as="targetPoint" />
            <Array as="points">
              <mxPoint x="490" y="274" />
              <mxPoint x="490" y="210" />
            </Array>
          </mxGeometry>
        </mxCell>
        <mxCell id="ekFLPFbGaSNAjxpNONnF-79" value="" style="curved=1;endArrow=classic;html=1;rounded=0;dashed=1;dashPattern=1 3;strokeColor=default;strokeWidth=2;align=center;verticalAlign=middle;fontFamily=Helvetica;fontSize=11;fontColor=default;labelBackgroundColor=default;flowAnimation=1;entryX=0.003;entryY=0.624;entryDx=0;entryDy=0;entryPerimeter=0;startArrow=classic;startFill=1;exitX=0.924;exitY=0.306;exitDx=0;exitDy=0;exitPerimeter=0;" edge="1" parent="ekFLPFbGaSNAjxpNONnF-90" source="ekFLPFbGaSNAjxpNONnF-34" target="ekFLPFbGaSNAjxpNONnF-36">
          <mxGeometry width="50" height="50" relative="1" as="geometry">
            <mxPoint x="90.00000000000001" y="245" as="sourcePoint" />
            <mxPoint x="140" y="195" as="targetPoint" />
            <Array as="points">
              <mxPoint x="120.00000000000001" y="245" />
              <mxPoint x="110.00000000000001" y="190" />
            </Array>
          </mxGeometry>
        </mxCell>
        <mxCell id="ekFLPFbGaSNAjxpNONnF-80" value="" style="curved=1;endArrow=classic;html=1;rounded=0;dashed=1;dashPattern=1 3;strokeColor=default;strokeWidth=2;align=center;verticalAlign=middle;fontFamily=Helvetica;fontSize=11;fontColor=default;labelBackgroundColor=default;flowAnimation=1;entryX=0.037;entryY=0.39;entryDx=0;entryDy=0;entryPerimeter=0;startArrow=classic;startFill=1;" edge="1" parent="ekFLPFbGaSNAjxpNONnF-90" target="ekFLPFbGaSNAjxpNONnF-36">
          <mxGeometry width="50" height="50" relative="1" as="geometry">
            <mxPoint x="80.00000000000001" y="70" as="sourcePoint" />
            <mxPoint x="130" y="20" as="targetPoint" />
            <Array as="points">
              <mxPoint x="130" y="70" />
              <mxPoint x="110.00000000000001" y="123" />
            </Array>
          </mxGeometry>
        </mxCell>
        <mxCell id="ekFLPFbGaSNAjxpNONnF-92" value="Microservice" style="rounded=1;whiteSpace=wrap;html=1;fontFamily=Helvetica;fontSize=11;fontColor=default;labelBackgroundColor=default;" vertex="1" parent="ekFLPFbGaSNAjxpNONnF-93">
          <mxGeometry x="197" width="325" height="42" as="geometry" />
        </mxCell>
      </root>
    </mxGraphModel>
  </diagram>
</mxfile>
